<?xml version="1.0" encoding="UTF-8" standalone="no"?>
<!-- Created with Inkscape (http://www.inkscape.org/) -->

<svg
   xmlns:dc="http://purl.org/dc/elements/1.1/"
   xmlns:cc="http://creativecommons.org/ns#"
   xmlns:rdf="http://www.w3.org/1999/02/22-rdf-syntax-ns#"
   xmlns:svg="http://www.w3.org/2000/svg"
   xmlns="http://www.w3.org/2000/svg"
   xmlns:sodipodi="http://sodipodi.sourceforge.net/DTD/sodipodi-0.dtd"
   xmlns:inkscape="http://www.inkscape.org/namespaces/inkscape"
   width="200mm"
   height="55mm"
   viewBox="0 0 200 55"
   version="1.1"
   id="svg8"
   inkscape:version="0.92.4 (5da689c313, 2019-01-14)"
   sodipodi:docname="logo-covid.svg">
  <defs
     id="defs2" />
  <sodipodi:namedview
     id="base"
     pagecolor="#ffffff"
     bordercolor="#666666"
     borderopacity="1.0"
     inkscape:pageopacity="0.0"
     inkscape:pageshadow="2"
     inkscape:zoom="0.35"
     inkscape:cx="498.62812"
     inkscape:cy="154.44607"
     inkscape:document-units="mm"
     inkscape:current-layer="layer1"
     showgrid="false"
     inkscape:snap-text-baseline="true"
     inkscape:window-width="1366"
     inkscape:window-height="705"
     inkscape:window-x="-8"
     inkscape:window-y="-8"
     inkscape:window-maximized="1" />
  <metadata
     id="metadata5">
    <rdf:RDF>
      <cc:Work
         rdf:about="">
        <dc:format>image/svg+xml</dc:format>
        <dc:type
           rdf:resource="http://purl.org/dc/dcmitype/StillImage" />
        <dc:title />
      </cc:Work>
    </rdf:RDF>
  </metadata>
  <g
     inkscape:label="Layer 1"
     inkscape:groupmode="layer"
     id="layer1"
     transform="translate(0,-242)">
    <g
       id="g824"
       transform="translate(-5.0000004,181.87606)">
      <path
         inkscape:connector-curvature="0"
         id="path4529"
         d="m 44.967264,112.90266 c -1.231149,-0.25981 -1.827997,-0.77761 -1.532577,-1.3296 0.110837,-0.2071 0.46487,-0.42529 0.961477,-0.59255 l 0.460001,-0.15492 0.0046,-1.19513 0.0046,-1.19514 -0.38381,-0.0738 c -2.403279,-0.46225 -4.389288,-1.46897 -6.131952,-3.10835 -0.311997,-0.2935 -0.567268,-0.50865 -0.567268,-0.47811 0,0.13643 0.580273,1.00609 0.901775,1.35151 0.194881,0.20938 0.354327,0.38511 0.354327,0.39052 0,0.006 -0.172712,0.18533 -0.383806,0.39983 -0.211097,0.21449 -0.38381,0.40492 -0.38381,0.42317 0,0.0182 0.09201,0.22773 0.204461,0.46552 0.979731,2.07164 -1.033098,1.94452 -3.076513,-0.1943 -0.899585,-0.94158 -1.38459,-1.79485 -1.384688,-2.43607 -4.7e-5,-0.30723 0.02746,-0.38294 0.183814,-0.50593 0.28985,-0.228 0.696147,-0.16775 1.467829,0.21765 0.16569,0.0828 0.309327,0.13623 0.319194,0.11884 0.0099,-0.0174 0.261904,-0.28321 0.560085,-0.59072 l 0.542146,-0.5591 -0.379189,-0.57635 c -0.929634,-1.41303 -1.441346,-2.72002 -1.82804,-4.669107 -0.03051,-0.15377 -0.0511,-0.15701 -0.997673,-0.15701 h -0.966521 l -0.0057,-0.854841 c -0.0052,-0.779754 -0.114119,-1.47748 -0.275555,-1.765597 -0.02804,-0.05006 -0.0548,0.40133 -0.05947,1.003041 -0.0091,1.174957 -0.133265,1.850337 -0.460595,2.505757 -0.423973,0.848917 -1.041218,0.769277 -1.476609,-0.19052 -0.573546,-1.26436 -0.501222,-3.909805 0.136798,-5.00375 0.336729,-0.577358 0.66939,-0.65403 1.073676,-0.247462 0.237979,0.239324 0.560762,0.913648 0.560762,1.17149 0,0.08566 0.195747,0.102058 1.21805,0.102058 h 1.218049 l 0.04451,-0.261687 c 0.202785,-1.192115 0.592097,-2.337801 1.19158,-3.506625 0.532075,-1.037388 1.213419,-1.985247 1.993948,-2.773889 0.313383,-0.316647 0.553242,-0.575718 0.53302,-0.575718 -0.201129,0 -1.053537,0.564109 -1.490962,0.98669 l -0.351107,0.339189 -0.407589,-0.411887 -0.407589,-0.411888 -0.495439,0.237438 c -0.551548,0.264316 -1.025169,0.311746 -1.286359,0.128795 -0.128979,-0.09034 -0.155094,-0.174652 -0.155094,-0.500722 0,-1.377117 2.515298,-3.961422 4.005159,-4.115037 0.289649,-0.02985 0.38895,-0.01026 0.530768,0.104705 0.265577,0.21532 0.240402,0.75526 -0.06405,1.37369 l -0.231463,0.470165 0.575135,0.578143 0.575136,0.578138 0.684813,-0.448691 c 1.215726,-0.79656 2.728301,-1.414966 4.095451,-1.674417 l 0.645496,-0.122493 V 84.213906 83.26023 l 0.959523,-0.03851 c 0.868393,-0.03483 1.519425,-0.157601 1.706404,-0.321769 0.02698,-0.02371 -0.341196,-0.03268 -0.818162,-0.01996 -1.393347,0.0371 -2.49324,-0.204399 -3.032316,-0.665824 -0.802608,-0.687007 0.139051,-1.432605 2.066005,-1.635849 1.172098,-0.12363 2.618678,0.07089 3.349582,0.450417 0.284911,0.14794 0.584028,0.50719 0.584028,0.701448 0,0.336769 -0.437377,0.679189 -1.168871,0.915097 l -0.366368,0.118151 1.41e-4,1.198159 1.42e-4,1.198158 0.647396,0.124637 c 2.14391,0.412748 4.218636,1.491104 5.832337,3.031406 0.331665,0.316579 0.611404,0.575994 0.621649,0.576485 0.01026,5.28e-4 -0.05718,-0.148739 -0.149869,-0.331609 -0.218606,-0.431402 -0.765793,-1.157707 -1.006136,-1.335492 l -0.188522,-0.139439 0.422643,-0.425413 0.422642,-0.425413 -0.209337,-0.422354 c -0.135097,-0.272564 -0.219644,-0.564901 -0.238408,-0.824297 -0.02537,-0.350404 -0.0085,-0.421095 0.131325,-0.55137 0.200315,-0.186624 0.505163,-0.191924 1.001684,-0.01744 1.247443,0.43844 3.028076,2.219079 3.466516,3.466523 0.17144,0.487774 0.166711,0.734898 -0.01855,0.97045 -0.139126,0.176882 -0.181126,0.189253 -0.55137,0.162473 -0.264648,-0.01916 -0.551266,-0.103938 -0.843817,-0.249636 l -0.443041,-0.220645 -0.578224,0.576528 -0.57823,0.576529 0.397018,0.590151 c 0.475195,0.706368 1.134845,2.051355 1.384653,2.823223 0.09937,0.307041 0.250122,0.895841 0.334994,1.308435 l 0.154316,0.750174 h 0.951268 0.951268 l 0.03384,0.889742 c 0.03096,0.814028 0.205947,1.761817 0.325369,1.762157 0.02377,7e-5 0.03354,-0.408939 0.02181,-0.908893 -0.02555,-1.086838 0.109164,-1.923186 0.41217,-2.559343 0.587842,-1.23417 1.379395,-0.824162 1.77809,0.921012 0.16797,0.73523 0.169493,2.290027 0.0031,3.030534 -0.328711,1.46171 -0.949862,2.005937 -1.52397,1.33522 -0.129397,-0.15117 -0.308005,-0.48089 -0.396913,-0.73272 l -0.161644,-0.45788 h -1.20002 -1.20002 l -0.121633,0.63453 c -0.257043,1.340857 -0.89742,2.920437 -1.652403,4.075857 -0.463193,0.70887 -0.796436,1.12012 -1.456068,1.79692 -0.289904,0.29745 -0.500833,0.54083 -0.468721,0.54083 0.171593,0 0.941471,-0.49314 1.340018,-0.85834 l 0.457119,-0.41886 0.400948,0.39676 0.400955,0.39677 0.482565,-0.22582 c 0.634124,-0.29674 1.160022,-0.31932 1.371104,-0.0589 0.57304,0.70709 -1.029464,3.06167 -2.804667,4.12092 -0.778864,0.46474 -1.481442,0.55562 -1.732632,0.22409 -0.154255,-0.20357 -0.06964,-0.83111 0.177472,-1.31627 l 0.217131,-0.42628 -0.579882,-0.57688 -0.579888,-0.57686 -0.548029,0.36332 c -0.711809,0.47191 -2.211714,1.2013 -2.920668,1.4203 -0.477308,0.14745 -0.810692,0.22702 -1.831814,0.43726 -0.153658,0.0316 -0.157018,0.0529 -0.157018,0.99261 v 0.96029 l -0.750166,0.003 c -0.766795,0.004 -1.450822,0.11015 -1.762035,0.27501 -0.151275,0.0801 -0.0771,0.0875 0.558269,0.0551 1.365507,-0.0695 2.722501,0.24435 3.227484,0.7465 0.298909,0.29723 0.332525,0.51668 0.120448,0.7863 -0.529873,0.67361 -2.891493,1.02791 -4.537048,0.68064 z m 0.342547,-0.94674 c -0.628131,-0.34129 -0.04584,-0.7468 1.278904,-0.89064 l 0.78888,-0.0856 -0.732728,-0.0208 c -1.118442,-0.0318 -2.087347,0.19531 -2.211274,0.51826 -0.08008,0.20869 0.506861,0.57755 0.92028,0.57834 0.118908,2.1e-4 0.112386,-0.0145 -0.04406,-0.0995 z m -0.929891,-4.37673 c 0.0756,-0.25511 0.394721,-0.49796 0.82748,-0.6297 0.316071,-0.0962 2.520557,-0.11899 2.856429,-0.0295 0.117604,0.0313 0.181538,0.0265 0.157743,-0.012 -0.02199,-0.0356 -0.299412,-0.13771 -0.616452,-0.2269 -0.774065,-0.21777 -2.188789,-0.23491 -2.774622,-0.0336 -0.703996,0.24188 -0.941119,0.54473 -0.736434,0.94054 0.141981,0.27456 0.202435,0.27271 0.285856,-0.009 z m -1.492837,-4.47006 c 1.703973,-1.29966 0.457093,-4.283657 -1.977186,-4.731747 -0.865951,-0.1594 -1.738144,0.18051 -2.191381,0.85402 -0.258267,0.38379 -0.417917,1.055607 -0.340602,1.433297 l 0.05448,0.26611 0.05638,-0.30378 c 0.117551,-0.633307 0.569713,-1.136287 1.201009,-1.335967 0.147436,-0.0466 0.49321,-0.0732 0.770331,-0.0592 0.812768,0.041 1.602991,0.50113 2.128761,1.239437 0.239975,0.33698 0.497034,1.07717 0.497034,1.43118 0,0.37204 -0.20229,0.9345 -0.428927,1.19262 -0.268947,0.30632 -0.161669,0.31287 0.2301,0.0141 z m 7.454413,0.0178 c -0.497331,-0.53239 -0.560374,-1.48765 -0.152823,-2.31551 0.269654,-0.54774 0.803746,-1.069197 1.387755,-1.354927 0.31564,-0.15443 0.516618,-0.19886 0.994399,-0.21983 0.547814,-0.0241 0.631433,-0.01 0.982127,0.17098 0.452751,0.23298 0.81848,0.679407 0.881996,1.076597 0.06633,0.41481 0.165237,0.39976 0.165237,-0.0252 0,-0.576547 -0.16813,-1.037477 -0.522011,-1.431077 -0.913702,-1.01626 -2.557654,-0.89571 -3.779024,0.27711 -1.301697,1.249957 -1.330749,3.126787 -0.06044,3.904517 0.299302,0.18323 0.328926,0.1594 0.102783,-0.0827 z m -8.653293,-0.72964 c 0.11021,-0.057 0.260887,-0.19045 0.334837,-0.29658 0.157218,-0.22562 0.239991,-0.50698 0.14915,-0.50698 -0.03479,0 -0.06325,0.0246 -0.06325,0.0547 0,0.11653 -0.419068,0.29418 -0.693937,0.29418 -0.556559,0 -1.113204,-0.4318 -1.260152,-0.97752 -0.08446,-0.31366 -0.03654,-0.58076 0.152775,-0.85166 l 0.132275,-0.189287 -0.194789,0.07 c -0.445807,0.160117 -0.648379,0.458477 -0.648379,0.954947 0,0.8343 0.711122,1.5422 1.556149,1.54909 0.184215,0.002 0.42511,-0.0439 0.535321,-0.10089 z m 10.658183,0.0195 c 0.586608,-0.25294 1.065408,-0.90428 1.066692,-1.45107 0.0012,-0.45838 -0.325007,-0.8899 -0.766831,-1.014777 l -0.174456,-0.0493 0.174456,0.188747 c 0.144531,0.15637 0.174462,0.25849 0.174462,0.59535 0,0.34949 -0.02997,0.44363 -0.213391,0.67025 -0.342328,0.42295 -0.544933,0.53971 -0.992777,0.5721 -0.36124,0.0262 -0.429934,0.009 -0.628989,-0.15869 -0.185051,-0.15572 -0.223458,-0.16739 -0.223458,-0.0679 0,0.20418 0.268738,0.56759 0.506366,0.68474 0.269433,0.13282 0.805558,0.14805 1.077926,0.0306 z m 5.078093,-3.342517 c 0.1367,-0.13138 0.136534,-0.13227 -0.02445,-0.13227 -0.261337,0 -0.609678,-0.40937 -0.745297,-0.87587 -0.133518,-0.459298 -0.171852,-1.668095 -0.08065,-2.543526 0.07096,-0.681191 -0.03593,-0.531647 -0.235963,0.330136 -0.123255,0.530972 -0.144624,0.801411 -0.12164,1.539104 0.02567,0.823326 0.04447,0.928136 0.235092,1.309776 0.293307,0.58723 0.619585,0.7122 0.972882,0.37265 z m 4.013544,-0.35668 c 0.127923,-0.13731 0.3503,-0.72392 0.349606,-0.92224 -1.41e-4,-0.041 -0.06313,0.0286 -0.139968,0.15458 -0.176335,0.28921 -0.317132,0.34403 -0.487541,0.18982 -0.211327,-0.19125 -0.356816,-0.741365 -0.410972,-1.553881 l -0.04994,-0.74924 -0.0543,0.52338 c -0.08703,0.839124 0.09802,1.969331 0.381466,2.329671 0.174947,0.22241 0.227131,0.22595 0.411636,0.0279 z m -24.832569,-0.83897 c 0.325338,-1.274312 0.18807,-2.867118 -0.288126,-3.343314 -0.215053,-0.21505 -0.381749,-0.244864 -0.66008,-0.118046 -0.194983,0.08884 -0.23663,0.198146 -0.0755,0.198146 0.198429,0 0.562772,0.404124 0.701362,0.777942 0.11677,0.314965 0.138468,0.548447 0.138468,1.490023 0,0.614094 -0.02429,1.252309 -0.05398,1.418249 -0.09619,0.53761 0.06645,0.24837 0.237854,-0.423 z m -4.267418,-1.016808 c -0.002,-1.212427 -0.241092,-2.038162 -0.606075,-2.092889 -0.174277,-0.02616 -0.320573,0.187809 -0.468079,0.684514 -0.142253,0.479016 -0.141166,0.483542 0.04852,0.202078 0.175149,-0.2599 0.350909,-0.329325 0.506607,-0.200106 0.18297,0.151853 0.375317,0.940931 0.389845,1.599298 0.0194,0.878773 0.13066,0.712643 0.129189,-0.192895 z m 9.1066,-3.153119 c 2.122407,-0.730218 2.968996,-3.421992 1.442447,-4.586326 -0.392365,-0.299271 -0.498927,-0.292128 -0.228962,0.01536 0.659398,0.751009 0.507088,2.014127 -0.353843,2.934469 -0.560215,0.598874 -1.143398,0.892095 -1.844709,0.927505 -1.057909,0.05344 -1.799315,-0.475595 -1.972932,-1.407749 l -0.05425,-0.291249 -0.05462,0.266896 c -0.07218,0.352683 0.114012,1.10707 0.361322,1.463943 0.544723,0.786031 1.612399,1.053258 2.705547,0.677161 z m 11.988729,-0.0164 c 0.696578,-0.297821 1.166822,-1.071568 1.166822,-1.919906 0,-0.424915 -0.09891,-0.43997 -0.165237,-0.02518 -0.06352,0.397189 -0.429245,0.843615 -0.881996,1.076593 -0.351013,0.180635 -0.43333,0.194916 -0.976488,0.169481 -0.464668,-0.02174 -0.680049,-0.06936 -0.994252,-0.219699 -0.921073,-0.440707 -1.588389,-1.353077 -1.645486,-2.249735 -0.03851,-0.604967 0.02297,-0.867182 0.29983,-1.278597 0.13033,-0.193668 0.215534,-0.351252 0.189344,-0.350183 -0.101837,0.0043 -0.59361,0.420296 -0.7547,0.638644 -0.34925,0.473383 -0.460313,1.230387 -0.279702,1.906517 0.142529,0.533558 0.354452,0.895092 0.810397,1.382497 0.898845,0.960869 2.199357,1.310819 3.231468,0.869541 z M 40.309341,92.10296 c -0.566823,-0.608419 0.168031,-1.814157 1.105663,-1.814157 0.274869,0 0.693937,0.177656 0.693937,0.294185 0,0.0301 0.02921,0.05473 0.06491,0.05473 0.09523,0 -0.03711,-0.411881 -0.184754,-0.575024 -0.318872,-0.352351 -0.995543,-0.443698 -1.470513,-0.198508 -1.083695,0.559428 -1.277002,1.939524 -0.328691,2.346664 0.262865,0.112856 0.296665,0.08232 0.119447,-0.107893 z m 12.66741,0.02684 c 0.743927,-0.469034 0.454188,-1.795411 -0.492289,-2.253592 -0.357265,-0.172951 -0.939678,-0.193165 -1.230614,-0.04269 -0.21548,0.111425 -0.491754,0.502749 -0.491754,0.696522 0,0.100467 0.03507,0.09057 0.214705,-0.06056 0.374863,-0.315431 1.003975,-0.233058 1.450971,0.189977 0.454575,0.430216 0.550442,0.964443 0.251982,1.404241 l -0.175844,0.259126 0.1584,-0.0473 c 0.08712,-0.02598 0.228618,-0.09157 0.314443,-0.14568 z m -4.727852,-5.218079 c 0.609444,-0.22882 0.834669,-0.607521 0.586546,-0.986217 l -0.112279,-0.17136 -0.149408,0.29405 c -0.29714,0.584796 -1.272481,0.815877 -2.881137,0.682598 -0.454977,-0.03771 -0.874335,-0.06682 -0.931906,-0.06473 -0.151811,0.0055 0.384258,0.19534 0.872291,0.308853 0.583251,0.135668 2.18962,0.09686 2.615893,-0.0632 z M 47.822608,82.50328 c 0.903261,-0.262584 0.950125,-0.616385 0.118273,-0.892899 -0.465266,-0.15466 -0.621875,-0.139078 -0.301599,0.03003 0.310266,0.163793 0.338071,0.343734 0.08399,0.543594 -0.232593,0.182957 -1.010844,0.356491 -1.650453,0.368026 -0.405693,0.0073 -0.459799,0.01959 -0.265358,0.06007 0.378287,0.07883 1.595809,0.01308 2.015143,-0.108809 z"
         style="fill:#000000;stroke-width:0.06978352" />
      <g
         transform="translate(-10.153311)"
         id="g4543">
        <g
           aria-label="Informa"
           style="font-style:normal;font-variant:normal;font-weight:normal;font-stretch:normal;font-size:15.67348862px;line-height:1.25;font-family:'Lucida Handwriting';-inkscape-font-specification:'Lucida Handwriting';letter-spacing:0px;word-spacing:0px;opacity:1;fill:#000000;fill-opacity:1;stroke:none;stroke-width:0.39183721"
           id="text4533">
          <path
             d="m 24.03895,65.103059 -1.890309,9.512766 q 1.461737,-0.191326 2.073982,-0.191326 0.9949,0 0.9949,1.385205 -0.558675,-0.191326 -1.178573,-0.191326 -0.59694,0 -1.461737,0.114796 l -1.7449,0.229592 q -0.933674,0.130102 -1.308675,0.130102 -0.642858,0 -0.910715,-0.306123 -0.267858,-0.306123 -0.321429,-1.117348 0.543368,0.29847 1.132654,0.29847 0.321429,0 1.07143,-0.114796 l 1.897962,-9.52042 q -0.826532,0.137755 -1.431125,0.137755 -1.056123,0 -1.056123,-1.239797 0.298469,0.198979 0.75,0.198979 0.551022,0 1.607145,-0.198979 l 1.209185,-0.229593 q 1.262757,-0.229592 1.928574,-0.229592 1.033165,0 1.193879,1.385206 -0.428572,-0.206633 -0.895409,-0.206633 -0.589286,0 -1.323981,0.107143 -0.114796,0.02296 -0.336735,0.04592 z"
             style="font-style:normal;font-variant:normal;font-weight:normal;font-stretch:normal;font-family:'Lucida Handwriting';-inkscape-font-specification:'Lucida Handwriting';stroke-width:0.39183721"
             id="path822" />
          <path
             d="m 30.092529,72.870925 q 2.71684,-5.747456 4.882659,-5.747456 1.691328,0 1.691328,3.367351 l 0.01531,0.926022 q 0,1.607145 0.160715,2.227043 0.168367,0.612246 0.604592,0.612246 0.658164,0 1.492349,-1.048471 0.841838,-1.04847 2.732146,-4.216841 l 0.642858,0.375 q -1.683675,3.176024 -3.015309,4.714291 -1.331635,1.538268 -2.387759,1.538268 -0.971939,0 -1.369899,-0.941328 -0.390307,-0.941328 -0.390307,-3.260208 l -0.0077,-0.658164 q 0,-1.255104 -0.160714,-1.760206 -0.160715,-0.512756 -0.558674,-0.512756 -1.010206,0 -3.252555,4.033168 -0.551022,0.987246 -0.711736,1.27041 -0.589286,1.025511 -0.589286,1.484696 0,0.183673 0.09949,0.352041 -0.443878,0.183673 -0.75,0.183673 -0.772961,0 -0.772961,-0.857143 0,-0.244899 0.19898,-2.204085 l 0.168368,-1.660716 q 0.114796,-1.056124 0.114796,-1.637757 0,-0.811226 -0.367348,-1.278063 0.160715,-0.05357 0.535715,-0.183674 0.474491,-0.168367 0.757654,-0.168367 0.59694,0 0.59694,0.87245 0,0.459184 -0.114796,1.576532 -0.02296,0.244899 -0.04592,0.466838 z"
             style="font-style:normal;font-variant:normal;font-weight:normal;font-stretch:normal;font-family:'Lucida Handwriting';-inkscape-font-specification:'Lucida Handwriting';stroke-width:0.39183721"
             id="path824" />
          <path
             d="m 41.327237,69.526533 h -0.153061 q -1.140308,0 -1.989798,0.566328 0.183673,-0.979593 0.535714,-1.239798 0.359695,-0.267857 1.500002,-0.267857 h 0.290817 l 0.252551,-1.262757 q 0.512756,-2.571432 1.637757,-3.704086 1.392859,-1.408165 3.084188,-1.408165 0.658164,0 1.132654,0.306123 0.474491,0.306123 0.474491,0.742348 0,0.443878 -0.987246,1.017858 -0.275511,-1.17092 -1.255104,-1.17092 -1.737247,0 -2.487248,3.780617 l -0.336735,1.698982 h 2.670922 q 1.829084,0 2.686227,-0.19898 -0.367347,0.811225 -0.841837,0.979593 -0.466838,0.160714 -2.418371,0.160714 h -2.288268 l -1.301022,6.566335 q -0.191327,0.948981 -0.191327,1.660716 0,0.451532 0.19898,0.818879 -0.765307,0.252551 -1.178573,0.252551 -0.635204,0 -0.635204,-0.711735 0,-0.558674 0.252551,-1.836737 z"
             style="font-style:normal;font-variant:normal;font-weight:normal;font-stretch:normal;font-family:'Lucida Handwriting';-inkscape-font-specification:'Lucida Handwriting';stroke-width:0.39183721"
             id="path826" />
          <path
             d="m 54.061946,69.978065 q 0.02296,0.183673 0.02296,0.329082 0,2.211737 -1.500002,3.857147 -1.500002,1.64541 -3.51276,1.64541 -1.538267,0 -2.510207,-0.979593 -0.964287,-0.987246 -0.964287,-2.556125 0,-1.783166 1.247451,-3.091841 1.255104,-1.308675 2.954085,-1.308675 0.260205,0 0.551021,0.06888 -0.191326,-0.344388 -0.191326,-0.581634 0,-0.367347 0.252551,-0.704082 1.867349,0.153061 3.107147,1.913268 1.270409,0.864797 2.647962,0.864797 0.895409,0 1.936227,-0.604593 l 0.382653,0.650511 q -1.216838,0.849491 -2.494901,0.849491 -0.849491,0 -1.928573,-0.352041 z m -1.737248,-0.650511 q -0.635204,-0.191327 -1.170919,-0.612246 -0.390307,-0.08418 -0.650511,-0.08418 -1.301022,0 -2.311228,1.17092 -1.002552,1.17092 -1.002552,2.670922 0,1.086736 0.604593,1.790818 0.612245,0.69643 1.568879,0.69643 1.293369,0 2.227044,-1.301022 0.933674,-1.308675 0.933674,-3.1148 0,-0.627552 -0.19898,-1.216838 z"
             style="font-style:normal;font-variant:normal;font-weight:normal;font-stretch:normal;font-family:'Lucida Handwriting';-inkscape-font-specification:'Lucida Handwriting';stroke-width:0.39183721"
             id="path828" />
          <path
             d="m 58.217563,75.564806 q -0.520408,0.244898 -0.834184,0.244898 -0.780614,0 -0.780614,-0.688776 0,-0.352041 0.275511,-1.752553 L 57.26093,71.46276 q 0.352041,-1.698981 0.352041,-2.51786 0,-0.443878 -0.252552,-0.742348 0.803573,-0.27551 1.308676,-0.27551 0.535714,0 0.535714,0.681123 0,0.420919 -0.382653,2.211737 l -0.436225,2.227044 q 1.44643,-2.808677 2.908167,-4.36225 1.469389,-1.561227 2.663268,-1.561227 0.420919,0 0.727042,0.244899 0.306123,0.237245 0.306123,0.581633 0,0.535715 -1.163267,1.423471 -0.290817,-0.604593 -0.826532,-0.604593 -0.971939,0 -2.479594,2.06633 -0.933675,1.285715 -1.622451,2.655615 -0.688777,1.362247 -0.688777,1.94388 z"
             style="font-style:normal;font-variant:normal;font-weight:normal;font-stretch:normal;font-family:'Lucida Handwriting';-inkscape-font-specification:'Lucida Handwriting';stroke-width:0.39183721"
             id="path830" />
          <path
             d="m 67.385943,72.93215 q 2.755105,-5.816334 4.867352,-5.816334 0.926022,0 0.926022,1.339288 0,0.57398 -0.39796,2.586737 l -0.459184,2.318881 q 1.339287,-2.81633 2.793371,-4.522965 1.454083,-1.714288 2.510207,-1.714288 1.163267,0 1.163267,1.362247 0,0.489796 -0.344388,2.24235 l -0.237246,1.193879 q -0.214286,1.079083 -0.214286,1.599491 0,0.918369 0.650511,0.918369 1.46939,0 4.515312,-5.464293 l 0.642858,0.359695 q -3.321433,6.474497 -5.801028,6.474497 -1.584185,0 -1.584185,-2.066329 0,-0.688776 0.306123,-2.211737 l 0.214286,-1.056124 q 0.214286,-1.07143 0.214286,-1.331634 0,-0.329082 -0.336735,-0.329082 -0.826532,0 -2.961739,3.283167 -1.936227,2.992351 -1.936227,3.420923 0,0.04592 0.03061,0.160714 -0.107143,0.02296 -0.375001,0.09949 -0.114796,0.03827 -0.344388,0.03827 -0.711736,0 -0.711736,-0.681124 0,-0.206633 0.229593,-1.24745 0.08418,-0.375001 0.168367,-0.803573 l 0.321429,-1.622451 q 0.352041,-1.752553 0.352041,-2.104594 0,-0.512756 -0.375,-0.512756 -0.826532,0 -2.433677,2.961739 -1.599491,2.938779 -1.599491,3.505106 0,0.160714 0.122449,0.313776 -0.420919,0.183673 -0.77296,0.183673 -0.79592,0 -0.79592,-0.857143 0,-0.107143 0.229592,-2.227044 l 0.176021,-1.630104 q 0.09184,-0.857144 0.09184,-1.584186 0,-0.918368 -0.375001,-1.34694 0.887757,-0.321429 1.255104,-0.321429 0.67347,0 0.67347,0.795919 0,0.283164 -0.183674,2.104595 z"
             style="font-style:normal;font-variant:normal;font-weight:normal;font-stretch:normal;font-family:'Lucida Handwriting';-inkscape-font-specification:'Lucida Handwriting';stroke-width:0.39183721"
             id="path832" />
          <path
             d="m 88.232905,70.942352 q -0.979593,2.028063 -2.41837,3.451534 -1.431124,1.415818 -2.494901,1.415818 -0.811225,0 -1.301022,-0.719388 -0.482143,-0.727042 -0.482143,-1.928574 0,-2.395411 1.44643,-4.216842 1.454083,-1.821431 3.359698,-1.821431 1.155614,0 2.502554,0.719389 0.19898,-0.711736 1.622451,-0.711736 0.09184,0 0.29847,0.0077 -0.436225,0.665818 -0.665817,1.821431 l -0.130103,0.650511 q -0.221939,1.086736 -0.221939,2.54082 0,1.676022 0.780614,1.676022 0.826531,0 2.257655,-1.377553 1.438778,-1.385205 2.823983,-3.520412 l 0.59694,0.413266 q -1.415818,2.525513 -3.237249,4.216842 -1.821431,1.683675 -3.130106,1.683675 -1.653063,0 -1.653063,-2.755105 0,-0.57398 0.04592,-1.54592 z M 88.5926,69.113268 q -1.607145,-1.048471 -2.670922,-1.048471 -1.155614,0 -1.997451,1.408165 -0.841838,1.400512 -0.841838,3.329086 0,1.54592 1.010205,1.54592 1.094389,0 4.18623,-4.806128 0.03826,-0.06122 0.313776,-0.428572 z"
             style="font-style:normal;font-variant:normal;font-weight:normal;font-stretch:normal;font-family:'Lucida Handwriting';-inkscape-font-specification:'Lucida Handwriting';stroke-width:0.39183721"
             id="path834" />
        </g>
        <g
           aria-label="C  vid-19"
           style="font-style:normal;font-variant:normal;font-weight:normal;font-stretch:normal;font-size:39.53228378px;line-height:1.25;font-family:'Lucida Handwriting';-inkscape-font-specification:'Lucida Handwriting';letter-spacing:0px;word-spacing:0px;opacity:1;fill:#000000;fill-opacity:1;stroke:none;stroke-width:0.98830706"
           id="text4537">
          <path
             d="m 41.705879,102.39876 q 0.366755,0.86863 0.366755,1.37051 0,2.50937 -4.304541,4.90293 -4.285237,2.39355 -8.80211,2.39355 -4.941535,0 -7.817663,-2.87612 -2.856825,-2.87613 -2.856825,-7.87558 0,-7.894872 5.17317,-13.569916 5.173169,-5.675045 12.373141,-5.675045 2.934037,0 4.941536,1.042355 2.007498,1.042355 2.007498,2.547979 0,1.351201 -1.737258,2.972643 -2.335648,-4.671295 -6.620886,-4.671295 -4.690598,0 -8.184418,4.883626 -3.49382,4.864324 -3.49382,11.369393 0,4.15012 2.08471,6.58228 2.104014,2.41286 5.675045,2.41286 6.099708,0 11.195666,-5.81017 z"
             style="font-style:normal;font-variant:normal;font-weight:normal;font-stretch:normal;font-family:'Lucida Handwriting';-inkscape-font-specification:'Lucida Handwriting';stroke-width:0.98830706"
             id="path837" />
          <path
             d="m 79.269269,110.87272 q 0.424663,-1.69865 0.424663,-2.93403 0,-4.76781 -2.026801,-10.539371 -2.026802,-5.771559 -4.748507,-8.705595 1.67935,-0.849327 3.011248,-0.849327 2.123316,0 4.285238,5.578531 2.181225,5.559227 3.127065,13.454102 3.378003,-4.28524 5.578531,-8.840716 2.200527,-4.555478 2.49007,-7.856269 2.895431,1.158172 2.895431,2.625191 0,1.312595 -2.779614,5.945285 -2.76031,4.632689 -6.003193,8.763499 -1.582836,2.0075 -2.663796,2.58659 -1.080961,0.57909 -3.590335,0.77211 z"
             style="font-style:normal;font-variant:normal;font-weight:normal;font-stretch:normal;font-family:'Lucida Handwriting';-inkscape-font-specification:'Lucida Handwriting';stroke-width:0.98830706"
             id="path839" />
          <path
             d="m 118.93667,94.561797 q -4.36245,7.643933 -8.82141,11.967783 -4.45896,4.30454 -8.01069,4.30454 -2.161924,0 -3.493822,-1.40911 -1.312595,-1.40911 -1.312595,-3.70615 0,-0.86863 0.386057,-2.76031 l 0.424663,-2.12332 q 0.945841,-4.594083 0.945841,-6.447159 0,-1.100263 -0.656298,-1.795167 2.509374,-0.579086 3.146364,-0.579086 1.42842,0 1.42842,2.007499 0,1.486321 -0.55979,4.265935 l -0.75281,3.764058 q -0.55978,2.72171 -0.55978,3.53243 0,2.39355 2.0268,2.39355 2.41286,0 6.42786,-4.0536 4.01499,-4.072906 7.77905,-10.307734 z m -17.17955,-9.728648 0.27024,0.0193 q 1.29329,-0.05791 3.70615,-1.293292 2.43216,-1.254687 3.80266,-2.54798 -0.84932,2.663797 -3.01124,4.458964 -3.28149,2.741008 -4.43966,2.741008 -0.77212,0 -0.77212,-0.945841 0,-1.351201 0.44397,-2.432162 z"
             style="font-style:normal;font-variant:normal;font-weight:normal;font-stretch:normal;font-family:'Lucida Handwriting';-inkscape-font-specification:'Lucida Handwriting';stroke-width:0.98830706"
             id="path841" />
          <path
             d="m 129.9007,99.059367 q -3.01124,5.424103 -6.31204,8.609083 -3.28148,3.16567 -5.86807,3.16567 -2.06541,0 -3.28149,-1.79517 -1.21608,-1.81447 -1.21608,-4.84502 0,-6.099707 3.62894,-10.674488 3.62894,-4.594084 8.43536,-4.594084 2.87613,0 6.27343,1.833773 l 2.06541,-10.404248 q -1.69865,0.347451 -2.81822,0.347451 -1.69865,0 -2.49007,-0.791417 -0.79142,-0.810721 -1.27399,-3.011249 1.38981,0.945841 4.26593,0.945841 3.57104,0 6.89113,-1.312595 l -4.20803,21.155949 q -0.7142,3.551727 -0.7142,6.041797 0,3.3201 1.89168,3.3201 1.85307,0 6.15762,-4.34315 4.32384,-4.343147 7.19997,-9.091654 l 1.58283,1.00375 q -3.43591,6.292734 -8.58978,11.253574 -5.13456,4.96084 -8.20372,4.96084 -3.89918,0 -3.89918,-6.25413 0,-2.58659 0.48257,-5.520623 z m 1.02306,-5.115262 q -4.015,-2.644493 -6.6788,-2.644493 -2.89543,0 -5.01874,3.551728 -2.10402,3.551729 -2.10402,8.39675 0,3.89918 2.54798,3.89918 2.74101,0 10.53937,-12.122204 0.13512,-0.212331 0.71421,-1.080961 z"
             style="font-style:normal;font-variant:normal;font-weight:normal;font-stretch:normal;font-family:'Lucida Handwriting';-inkscape-font-specification:'Lucida Handwriting';stroke-width:0.98830706"
             id="path843" />
          <path
             d="m 149.26149,100.33336 q 1.10026,-3.397309 3.53242,-3.397309 0.46327,0 0.96515,0.05791 l 2.10401,0.231635 q 0.61769,0.05791 1.19678,0.05791 1.54423,0 2.21983,-0.849326 -0.57909,3.764064 -2.7024,3.764064 -0.48258,0 -1.19678,-0.0772 l -1.42842,-0.173721 q -1.50562,-0.193029 -2.33564,-0.193029 -1.19678,0 -2.35495,0.57909 z"
             style="font-style:normal;font-variant:normal;font-weight:normal;font-stretch:normal;font-family:'Lucida Handwriting';-inkscape-font-specification:'Lucida Handwriting';stroke-width:0.98830706"
             id="path845" />
          <path
             d="m 180.06887,81.030483 -5.13456,26.387027 q 2.10401,-0.28954 3.22358,-0.28954 2.54798,0 3.3973,0.79142 0.84933,0.77211 0.84933,3.10776 -1.02305,-0.6756 -2.76031,-0.6756 -1.91099,0 -4.63269,0.32815 l -2.79892,0.34745 q -1.29329,0.17372 -3.55173,0.52118 -0.73351,0.11581 -1.44771,0.11581 -2.12332,0 -2.47077,-3.62894 1.00375,0.50188 2.0075,0.50188 2.08471,0 4.20803,-0.50188 l 4.26593,-21.503398 q -3.18497,1.563533 -5.03805,1.563533 -2.77961,0 -2.77961,-3.590335 v -0.54048 q 1.15817,1.023052 2.6831,1.023052 2.52867,0 8.58977,-3.300791 0.25094,-0.13512 1.38981,-0.656298 z"
             style="font-style:normal;font-variant:normal;font-weight:normal;font-stretch:normal;font-family:'Lucida Handwriting';-inkscape-font-specification:'Lucida Handwriting';stroke-width:0.98830706"
             id="path847" />
          <path
             d="m 207.69129,95.777878 q -2.70241,3.976392 -7.47022,3.976392 -3.3587,0 -5.57853,-2.21983 -2.21983,-2.219831 -2.21983,-5.559228 0,-4.381752 3.16567,-7.643937 3.18498,-3.262186 7.43161,-3.262186 3.99569,0 6.48577,2.934037 2.50937,2.914733 2.50937,7.624634 0,8.338842 -4.09221,13.89807 -4.07291,5.53992 -10.23052,5.53992 -2.62519,0 -4.20803,-0.84932 -1.58283,-0.84933 -1.58283,-2.27774 0,-0.48257 0.21233,-1.40911 2.43216,1.93029 5.67504,1.93029 3.59034,0 6.33134,-3.51313 2.76031,-3.53242 3.57104,-9.168862 z m 0.54048,-3.841272 q 0,-4.343146 -1.2933,-6.331342 -1.69865,-2.644493 -4.34314,-2.644493 -2.54798,0 -4.49757,2.62519 -1.93029,2.625191 -1.93029,6.080405 0,2.316345 1.3319,3.783363 1.3512,1.447716 3.49382,1.447716 4.84502,0 7.23858,-4.960839 z"
             style="font-style:normal;font-variant:normal;font-weight:normal;font-stretch:normal;font-family:'Lucida Handwriting';-inkscape-font-specification:'Lucida Handwriting';stroke-width:0.98830706"
             id="path849" />
        </g>
      </g>
    </g>
  </g>
</svg>
